# xmcd
#
# Track frame offsets:
#	150
#	11600
#	23895
#	36702
#	52037
#	63187
#	76535
#	88440
#	102147
#	113482
#	123250
#	136165
#	148537
#	159897
#	177600
#	187195
#	199712
#	210847
#
# Disc length: 2971 seconds
#
# Revision: 0
# Processed by: cddbd v1.5.1PL2 Copyright (c) Steve Scherf et al.
# Submitted via: audiograbber 1.83.01
#
DISCID=f00b9912
DTITLE=Dinah Washington - What A Diff'rence A Day Makes - 18 Great Songs)
DYEAR=1992
DGENRE=Jazz
TTITLE0=What A diff'rence A Day Makes
TTITLE1=Unforgettable
TTITLE2=Mad About The Boy
TTITLE3=Smoke Gets in Your Eyes
TTITLE4=Such A Night
TTITLE5=Time Out For Tears
TTITLE6=Harbour Lights
TTITLE7=Trust In Me
TTITLE8=This Bitter Earth
TTITLE9=September In The Rain
TTITLE10=Make me a Present
TTITLE11=I Wanna Be Loved 
TTITLE12=Salty Papa Blues
TTITLE13=Mixed Emotions
TTITLE14=If I Were A Bell
TTITLE15=Teach Me Tonight
TTITLE16=If I Loved You
TTITLE17=Keeping Out of Mischief Now
EXTD=YEAR: 1992
EXTT0=
EXTT1=
EXTT2=
EXTT3=
EXTT4=
EXTT5=
EXTT6=
EXTT7=
EXTT8=
EXTT9=
EXTT10=
EXTT11=
EXTT12=
EXTT13=
EXTT14=
EXTT15=
EXTT16=
EXTT17=
PLAYORDER=
